<mxfile host="app.diagrams.net" modified="2023-08-07T20:46:17.389Z" agent="Mozilla/5.0 (Macintosh; Intel Mac OS X 10_15_7) AppleWebKit/537.36 (KHTML, like Gecko) Chrome/115.0.0.0 Safari/537.36" etag="awUpj_wY5pWUDfWKHkHT" version="21.6.1" type="github" pages="2">
  <diagram id="l7WRd5-DwWEaKc7mYoce" name="Page-1">
    <mxGraphModel dx="1482" dy="789" grid="1" gridSize="10" guides="1" tooltips="1" connect="1" arrows="1" fold="1" page="1" pageScale="1" pageWidth="1100" pageHeight="850" math="0" shadow="0">
      <root>
        <mxCell id="0" />
        <mxCell id="1" parent="0" />
        <mxCell id="IqJB-ga0B4Vtw55OfMoS-2" value="MAIN&lt;br&gt;Upstream Repo" style="rounded=0;whiteSpace=wrap;html=1;verticalAlign=top;" parent="1" vertex="1">
          <mxGeometry x="930" y="40" width="160" height="210" as="geometry" />
        </mxCell>
        <mxCell id="IqJB-ga0B4Vtw55OfMoS-3" value="MAIN" style="swimlane;whiteSpace=wrap;html=1;" parent="1" vertex="1">
          <mxGeometry x="610" y="340" width="410" height="370" as="geometry" />
        </mxCell>
        <mxCell id="tjuw3aRMzDB2KfuYcoq9-12" style="edgeStyle=orthogonalEdgeStyle;rounded=0;orthogonalLoop=1;jettySize=auto;html=1;exitX=0.5;exitY=1;exitDx=0;exitDy=0;entryX=0.5;entryY=0;entryDx=0;entryDy=0;startArrow=classic;startFill=1;" parent="IqJB-ga0B4Vtw55OfMoS-3" source="IqJB-ga0B4Vtw55OfMoS-4" target="tjuw3aRMzDB2KfuYcoq9-11" edge="1">
          <mxGeometry relative="1" as="geometry" />
        </mxCell>
        <mxCell id="IqJB-ga0B4Vtw55OfMoS-4" value="User Interface Code&lt;br&gt;(React)" style="rounded=0;whiteSpace=wrap;html=1;fillColor=#dae8fc;strokeColor=#6c8ebf;" parent="IqJB-ga0B4Vtw55OfMoS-3" vertex="1">
          <mxGeometry x="40" y="50" width="120" height="60" as="geometry" />
        </mxCell>
        <mxCell id="IqJB-ga0B4Vtw55OfMoS-5" value="DB Migration Scripts" style="rounded=0;whiteSpace=wrap;html=1;fillColor=#dae8fc;strokeColor=#6c8ebf;" parent="IqJB-ga0B4Vtw55OfMoS-3" vertex="1">
          <mxGeometry x="40" y="270" width="120" height="60" as="geometry" />
        </mxCell>
        <mxCell id="tjuw3aRMzDB2KfuYcoq9-13" style="edgeStyle=orthogonalEdgeStyle;rounded=0;orthogonalLoop=1;jettySize=auto;html=1;exitX=0.5;exitY=1;exitDx=0;exitDy=0;entryX=1;entryY=0.5;entryDx=0;entryDy=0;startArrow=classic;startFill=1;" parent="IqJB-ga0B4Vtw55OfMoS-3" source="tjuw3aRMzDB2KfuYcoq9-9" target="tjuw3aRMzDB2KfuYcoq9-11" edge="1">
          <mxGeometry relative="1" as="geometry" />
        </mxCell>
        <mxCell id="tjuw3aRMzDB2KfuYcoq9-9" value="Data Access Layer Code&lt;br&gt;(Web API)" style="rounded=0;whiteSpace=wrap;html=1;fillColor=#dae8fc;strokeColor=#6c8ebf;" parent="IqJB-ga0B4Vtw55OfMoS-3" vertex="1">
          <mxGeometry x="220" y="50" width="150" height="70" as="geometry" />
        </mxCell>
        <mxCell id="tjuw3aRMzDB2KfuYcoq9-14" style="edgeStyle=orthogonalEdgeStyle;rounded=0;orthogonalLoop=1;jettySize=auto;html=1;exitX=0.5;exitY=1;exitDx=0;exitDy=0;entryX=0.5;entryY=0;entryDx=0;entryDy=0;startArrow=classic;startFill=1;" parent="IqJB-ga0B4Vtw55OfMoS-3" source="tjuw3aRMzDB2KfuYcoq9-11" target="IqJB-ga0B4Vtw55OfMoS-5" edge="1">
          <mxGeometry relative="1" as="geometry" />
        </mxCell>
        <mxCell id="tjuw3aRMzDB2KfuYcoq9-11" value="Version Sync" style="ellipse;whiteSpace=wrap;html=1;" parent="IqJB-ga0B4Vtw55OfMoS-3" vertex="1">
          <mxGeometry x="160" y="170" width="100" height="55" as="geometry" />
        </mxCell>
        <mxCell id="IqJB-ga0B4Vtw55OfMoS-7" value="&lt;b&gt;Database Versioning&lt;/b&gt;&lt;br&gt;LiquidBase, EF, Flyway&lt;br&gt;&lt;br&gt;Version Controlled, &lt;br&gt;Migration-based Deployments" style="rounded=0;whiteSpace=wrap;html=1;" parent="1" vertex="1">
          <mxGeometry x="80" y="560" width="190" height="140" as="geometry" />
        </mxCell>
        <mxCell id="tjuw3aRMzDB2KfuYcoq9-2" value="Isolated Developer Environment" style="swimlane;whiteSpace=wrap;html=1;" parent="1" vertex="1">
          <mxGeometry x="30" y="50" width="510" height="360" as="geometry" />
        </mxCell>
        <mxCell id="tjuw3aRMzDB2KfuYcoq9-1" value="Local DB" style="shape=cylinder3;whiteSpace=wrap;html=1;boundedLbl=1;backgroundOutline=1;size=15;" parent="tjuw3aRMzDB2KfuYcoq9-2" vertex="1">
          <mxGeometry x="330" y="220" width="120" height="80" as="geometry" />
        </mxCell>
        <mxCell id="tjuw3aRMzDB2KfuYcoq9-4" style="edgeStyle=orthogonalEdgeStyle;rounded=0;orthogonalLoop=1;jettySize=auto;html=1;exitX=1;exitY=0.5;exitDx=0;exitDy=0;entryX=0;entryY=0.5;entryDx=0;entryDy=0;entryPerimeter=0;" parent="tjuw3aRMzDB2KfuYcoq9-2" source="tjuw3aRMzDB2KfuYcoq9-3" target="tjuw3aRMzDB2KfuYcoq9-1" edge="1">
          <mxGeometry relative="1" as="geometry" />
        </mxCell>
        <mxCell id="tjuw3aRMzDB2KfuYcoq9-5" value="Data Access Layer Code&lt;br&gt;(Web API)" style="rounded=0;whiteSpace=wrap;html=1;" parent="tjuw3aRMzDB2KfuYcoq9-2" vertex="1">
          <mxGeometry x="80" y="50" width="150" height="70" as="geometry" />
        </mxCell>
        <mxCell id="tjuw3aRMzDB2KfuYcoq9-6" value="Docker&lt;br&gt;(if needed)" style="rounded=1;whiteSpace=wrap;html=1;" parent="tjuw3aRMzDB2KfuYcoq9-2" vertex="1">
          <mxGeometry x="350" y="60" width="120" height="60" as="geometry" />
        </mxCell>
        <mxCell id="tjuw3aRMzDB2KfuYcoq9-7" value="DB Versioning" style="swimlane;horizontal=0;whiteSpace=wrap;html=1;" parent="tjuw3aRMzDB2KfuYcoq9-2" vertex="1">
          <mxGeometry x="40" y="190" width="200" height="140" as="geometry" />
        </mxCell>
        <mxCell id="tjuw3aRMzDB2KfuYcoq9-3" value="DB Migration Scripts" style="rounded=0;whiteSpace=wrap;html=1;" parent="tjuw3aRMzDB2KfuYcoq9-7" vertex="1">
          <mxGeometry x="40" y="40" width="120" height="60" as="geometry" />
        </mxCell>
      </root>
    </mxGraphModel>
  </diagram>
  <diagram id="R2rGJGskelwG9dFmpJen" name="Page-2">
    <mxGraphModel dx="1242" dy="1007" grid="1" gridSize="10" guides="1" tooltips="1" connect="1" arrows="1" fold="1" page="1" pageScale="1" pageWidth="1100" pageHeight="850" math="0" shadow="0">
      <root>
        <mxCell id="0" />
        <mxCell id="1" parent="0" />
        <mxCell id="MxMQbaw_Bkv6XioIEyTY-6" style="edgeStyle=orthogonalEdgeStyle;rounded=0;orthogonalLoop=1;jettySize=auto;html=1;entryX=1;entryY=0.25;entryDx=0;entryDy=0;strokeWidth=2;fillColor=#dae8fc;strokeColor=#6c8ebf;" edge="1" parent="1" target="MxMQbaw_Bkv6XioIEyTY-3">
          <mxGeometry relative="1" as="geometry">
            <mxPoint x="520" y="130" as="sourcePoint" />
          </mxGeometry>
        </mxCell>
        <mxCell id="MxMQbaw_Bkv6XioIEyTY-7" value="Forked" style="edgeLabel;html=1;align=center;verticalAlign=middle;resizable=0;points=[];" vertex="1" connectable="0" parent="MxMQbaw_Bkv6XioIEyTY-6">
          <mxGeometry x="-0.027" y="1" relative="1" as="geometry">
            <mxPoint as="offset" />
          </mxGeometry>
        </mxCell>
        <mxCell id="MxMQbaw_Bkv6XioIEyTY-2" value="Upstream&lt;br&gt;Informatics/Project" style="swimlane;whiteSpace=wrap;html=1;startSize=30;" vertex="1" parent="1">
          <mxGeometry x="520" y="80" width="200" height="660" as="geometry" />
        </mxCell>
        <mxCell id="MxMQbaw_Bkv6XioIEyTY-8" value="PROD" style="rounded=1;whiteSpace=wrap;html=1;" vertex="1" parent="MxMQbaw_Bkv6XioIEyTY-2">
          <mxGeometry x="40" y="560" width="120" height="60" as="geometry" />
        </mxCell>
        <mxCell id="MxMQbaw_Bkv6XioIEyTY-23" style="edgeStyle=orthogonalEdgeStyle;rounded=0;orthogonalLoop=1;jettySize=auto;html=1;exitX=0.5;exitY=1;exitDx=0;exitDy=0;entryX=0.5;entryY=0;entryDx=0;entryDy=0;strokeWidth=2;fillColor=#d5e8d4;strokeColor=#82b366;" edge="1" parent="MxMQbaw_Bkv6XioIEyTY-2" source="MxMQbaw_Bkv6XioIEyTY-9" target="MxMQbaw_Bkv6XioIEyTY-8">
          <mxGeometry relative="1" as="geometry" />
        </mxCell>
        <mxCell id="MxMQbaw_Bkv6XioIEyTY-9" value="QA" style="rounded=1;whiteSpace=wrap;html=1;" vertex="1" parent="MxMQbaw_Bkv6XioIEyTY-2">
          <mxGeometry x="40" y="440" width="120" height="60" as="geometry" />
        </mxCell>
        <mxCell id="MxMQbaw_Bkv6XioIEyTY-22" style="edgeStyle=orthogonalEdgeStyle;rounded=0;orthogonalLoop=1;jettySize=auto;html=1;exitX=0.5;exitY=1;exitDx=0;exitDy=0;entryX=0.5;entryY=0;entryDx=0;entryDy=0;fillColor=#d5e8d4;strokeColor=#82b366;strokeWidth=2;" edge="1" parent="MxMQbaw_Bkv6XioIEyTY-2" source="MxMQbaw_Bkv6XioIEyTY-10" target="MxMQbaw_Bkv6XioIEyTY-9">
          <mxGeometry relative="1" as="geometry" />
        </mxCell>
        <mxCell id="MxMQbaw_Bkv6XioIEyTY-10" value="Test" style="rounded=1;whiteSpace=wrap;html=1;" vertex="1" parent="MxMQbaw_Bkv6XioIEyTY-2">
          <mxGeometry x="40" y="330" width="120" height="60" as="geometry" />
        </mxCell>
        <mxCell id="MxMQbaw_Bkv6XioIEyTY-21" style="edgeStyle=orthogonalEdgeStyle;rounded=0;orthogonalLoop=1;jettySize=auto;html=1;exitX=0.5;exitY=1;exitDx=0;exitDy=0;entryX=0.5;entryY=0;entryDx=0;entryDy=0;fillColor=#d5e8d4;strokeColor=#82b366;strokeWidth=2;" edge="1" parent="MxMQbaw_Bkv6XioIEyTY-2" source="MxMQbaw_Bkv6XioIEyTY-11" target="MxMQbaw_Bkv6XioIEyTY-10">
          <mxGeometry relative="1" as="geometry" />
        </mxCell>
        <mxCell id="MxMQbaw_Bkv6XioIEyTY-11" value="Dev" style="rounded=1;whiteSpace=wrap;html=1;" vertex="1" parent="MxMQbaw_Bkv6XioIEyTY-2">
          <mxGeometry x="40" y="220" width="120" height="60" as="geometry" />
        </mxCell>
        <mxCell id="MxMQbaw_Bkv6XioIEyTY-19" style="edgeStyle=orthogonalEdgeStyle;rounded=0;orthogonalLoop=1;jettySize=auto;html=1;exitX=0.5;exitY=1;exitDx=0;exitDy=0;entryX=0.5;entryY=0;entryDx=0;entryDy=0;fillColor=#d5e8d4;strokeColor=#82b366;strokeWidth=2;" edge="1" parent="MxMQbaw_Bkv6XioIEyTY-2" source="MxMQbaw_Bkv6XioIEyTY-12" target="MxMQbaw_Bkv6XioIEyTY-11">
          <mxGeometry relative="1" as="geometry" />
        </mxCell>
        <mxCell id="MxMQbaw_Bkv6XioIEyTY-20" value="MERGE REQUEST" style="edgeLabel;html=1;align=center;verticalAlign=middle;resizable=0;points=[];" vertex="1" connectable="0" parent="MxMQbaw_Bkv6XioIEyTY-19">
          <mxGeometry x="0.075" relative="1" as="geometry">
            <mxPoint as="offset" />
          </mxGeometry>
        </mxCell>
        <mxCell id="MxMQbaw_Bkv6XioIEyTY-12" value="Ad Hoc&lt;br&gt;Feature/Release" style="rounded=1;whiteSpace=wrap;html=1;" vertex="1" parent="MxMQbaw_Bkv6XioIEyTY-2">
          <mxGeometry x="40" y="80" width="120" height="60" as="geometry" />
        </mxCell>
        <mxCell id="MxMQbaw_Bkv6XioIEyTY-5" style="edgeStyle=orthogonalEdgeStyle;rounded=0;orthogonalLoop=1;jettySize=auto;html=1;exitX=0.5;exitY=1;exitDx=0;exitDy=0;entryX=0.5;entryY=0;entryDx=0;entryDy=0;startArrow=classic;startFill=1;strokeWidth=2;endArrow=none;endFill=0;fillColor=#d5e8d4;strokeColor=#82b366;" edge="1" parent="1" source="MxMQbaw_Bkv6XioIEyTY-3" target="MxMQbaw_Bkv6XioIEyTY-4">
          <mxGeometry relative="1" as="geometry" />
        </mxCell>
        <mxCell id="MxMQbaw_Bkv6XioIEyTY-15" value="git push origin &amp;lt;branch&amp;gt;" style="edgeLabel;html=1;align=center;verticalAlign=middle;resizable=0;points=[];" vertex="1" connectable="0" parent="MxMQbaw_Bkv6XioIEyTY-5">
          <mxGeometry x="0.0621" y="-2" relative="1" as="geometry">
            <mxPoint as="offset" />
          </mxGeometry>
        </mxCell>
        <mxCell id="MxMQbaw_Bkv6XioIEyTY-3" value="Origin&lt;br&gt;&amp;lt;username&amp;gt;/Project" style="swimlane;whiteSpace=wrap;html=1;startSize=30;" vertex="1" parent="1">
          <mxGeometry x="80" y="80" width="200" height="200" as="geometry" />
        </mxCell>
        <mxCell id="MxMQbaw_Bkv6XioIEyTY-17" value="Ad Hoc&lt;br&gt;Feature/Release" style="rounded=1;whiteSpace=wrap;html=1;" vertex="1" parent="MxMQbaw_Bkv6XioIEyTY-3">
          <mxGeometry x="40" y="80" width="120" height="60" as="geometry" />
        </mxCell>
        <mxCell id="MxMQbaw_Bkv6XioIEyTY-13" style="edgeStyle=orthogonalEdgeStyle;rounded=0;orthogonalLoop=1;jettySize=auto;html=1;exitX=1;exitY=0.5;exitDx=0;exitDy=0;endArrow=none;endFill=0;startArrow=classic;startFill=1;strokeWidth=2;entryX=0;entryY=0.75;entryDx=0;entryDy=0;fillColor=#dae8fc;strokeColor=#6c8ebf;" edge="1" parent="1" source="MxMQbaw_Bkv6XioIEyTY-4" target="MxMQbaw_Bkv6XioIEyTY-2">
          <mxGeometry relative="1" as="geometry">
            <mxPoint x="520" y="160" as="targetPoint" />
            <Array as="points">
              <mxPoint x="360" y="578" />
              <mxPoint x="360" y="575" />
            </Array>
          </mxGeometry>
        </mxCell>
        <mxCell id="MxMQbaw_Bkv6XioIEyTY-14" value="git pull upstream &amp;lt;branch&amp;gt;" style="edgeLabel;html=1;align=center;verticalAlign=middle;resizable=0;points=[];" vertex="1" connectable="0" parent="MxMQbaw_Bkv6XioIEyTY-13">
          <mxGeometry x="0.5928" y="2" relative="1" as="geometry">
            <mxPoint x="-71" y="2" as="offset" />
          </mxGeometry>
        </mxCell>
        <mxCell id="MxMQbaw_Bkv6XioIEyTY-16" style="edgeStyle=orthogonalEdgeStyle;rounded=0;orthogonalLoop=1;jettySize=auto;html=1;exitX=1;exitY=0.5;exitDx=0;exitDy=0;entryX=0;entryY=0.5;entryDx=0;entryDy=0;strokeWidth=2;fillColor=#d5e8d4;strokeColor=#82b366;" edge="1" parent="1" source="MxMQbaw_Bkv6XioIEyTY-17" target="MxMQbaw_Bkv6XioIEyTY-12">
          <mxGeometry relative="1" as="geometry" />
        </mxCell>
        <mxCell id="MxMQbaw_Bkv6XioIEyTY-18" value="MERGE REQUEST" style="edgeLabel;html=1;align=center;verticalAlign=middle;resizable=0;points=[];" vertex="1" connectable="0" parent="MxMQbaw_Bkv6XioIEyTY-16">
          <mxGeometry x="0.0625" y="-1" relative="1" as="geometry">
            <mxPoint as="offset" />
          </mxGeometry>
        </mxCell>
        <mxCell id="MxMQbaw_Bkv6XioIEyTY-4" value="Local" style="swimlane;whiteSpace=wrap;html=1;" vertex="1" parent="1">
          <mxGeometry x="80" y="425" width="200" height="305" as="geometry" />
        </mxCell>
        <mxCell id="MxMQbaw_Bkv6XioIEyTY-33" value="Ad Hoc&lt;br&gt;Feature/Release" style="rounded=1;whiteSpace=wrap;html=1;" vertex="1" parent="MxMQbaw_Bkv6XioIEyTY-4">
          <mxGeometry x="40" y="45" width="120" height="60" as="geometry" />
        </mxCell>
        <mxCell id="MxMQbaw_Bkv6XioIEyTY-34" value="Any ol&#39; Branch the Dev wants to do" style="rounded=1;whiteSpace=wrap;html=1;" vertex="1" parent="MxMQbaw_Bkv6XioIEyTY-4">
          <mxGeometry x="40" y="145" width="120" height="60" as="geometry" />
        </mxCell>
        <mxCell id="MxMQbaw_Bkv6XioIEyTY-25" value="Dev" style="shape=cylinder3;whiteSpace=wrap;html=1;boundedLbl=1;backgroundOutline=1;size=15;" vertex="1" parent="1">
          <mxGeometry x="860" y="290" width="60" height="80" as="geometry" />
        </mxCell>
        <mxCell id="MxMQbaw_Bkv6XioIEyTY-26" value="Test" style="shape=cylinder3;whiteSpace=wrap;html=1;boundedLbl=1;backgroundOutline=1;size=15;" vertex="1" parent="1">
          <mxGeometry x="860" y="400" width="60" height="80" as="geometry" />
        </mxCell>
        <mxCell id="MxMQbaw_Bkv6XioIEyTY-27" value="QA" style="shape=cylinder3;whiteSpace=wrap;html=1;boundedLbl=1;backgroundOutline=1;size=15;" vertex="1" parent="1">
          <mxGeometry x="860" y="510" width="60" height="80" as="geometry" />
        </mxCell>
        <mxCell id="MxMQbaw_Bkv6XioIEyTY-28" value="PROD" style="shape=cylinder3;whiteSpace=wrap;html=1;boundedLbl=1;backgroundOutline=1;size=15;" vertex="1" parent="1">
          <mxGeometry x="860" y="630" width="60" height="80" as="geometry" />
        </mxCell>
        <mxCell id="MxMQbaw_Bkv6XioIEyTY-29" style="edgeStyle=orthogonalEdgeStyle;rounded=0;orthogonalLoop=1;jettySize=auto;html=1;exitX=1;exitY=0.5;exitDx=0;exitDy=0;entryX=0;entryY=0.5;entryDx=0;entryDy=0;entryPerimeter=0;fillColor=#e1d5e7;strokeColor=#9673a6;strokeWidth=2;" edge="1" parent="1" source="MxMQbaw_Bkv6XioIEyTY-11" target="MxMQbaw_Bkv6XioIEyTY-25">
          <mxGeometry relative="1" as="geometry" />
        </mxCell>
        <mxCell id="MxMQbaw_Bkv6XioIEyTY-30" style="edgeStyle=orthogonalEdgeStyle;rounded=0;orthogonalLoop=1;jettySize=auto;html=1;exitX=1;exitY=0.5;exitDx=0;exitDy=0;entryX=0;entryY=0.5;entryDx=0;entryDy=0;entryPerimeter=0;fillColor=#e1d5e7;strokeColor=#9673a6;strokeWidth=2;" edge="1" parent="1" source="MxMQbaw_Bkv6XioIEyTY-10" target="MxMQbaw_Bkv6XioIEyTY-26">
          <mxGeometry relative="1" as="geometry" />
        </mxCell>
        <mxCell id="MxMQbaw_Bkv6XioIEyTY-31" style="edgeStyle=orthogonalEdgeStyle;rounded=0;orthogonalLoop=1;jettySize=auto;html=1;exitX=1;exitY=0.5;exitDx=0;exitDy=0;entryX=0;entryY=0.5;entryDx=0;entryDy=0;entryPerimeter=0;fillColor=#e1d5e7;strokeColor=#9673a6;strokeWidth=2;" edge="1" parent="1" source="MxMQbaw_Bkv6XioIEyTY-9" target="MxMQbaw_Bkv6XioIEyTY-27">
          <mxGeometry relative="1" as="geometry" />
        </mxCell>
        <mxCell id="MxMQbaw_Bkv6XioIEyTY-32" style="edgeStyle=orthogonalEdgeStyle;rounded=0;orthogonalLoop=1;jettySize=auto;html=1;exitX=1;exitY=0.5;exitDx=0;exitDy=0;entryX=0;entryY=0.5;entryDx=0;entryDy=0;entryPerimeter=0;fillColor=#e1d5e7;strokeColor=#9673a6;strokeWidth=2;" edge="1" parent="1" source="MxMQbaw_Bkv6XioIEyTY-8" target="MxMQbaw_Bkv6XioIEyTY-28">
          <mxGeometry relative="1" as="geometry" />
        </mxCell>
        <mxCell id="MxMQbaw_Bkv6XioIEyTY-37" value="&lt;h1&gt;Questions&lt;/h1&gt;&lt;p&gt;* How to back out changes if a deployment or app change fails testing once it makes it to Test or QA?&lt;/p&gt;&lt;p&gt;* Is requirement of new ad hoc branch in Upstream too much?&amp;nbsp; Should we allow MR directly to Dev branch?&lt;/p&gt;&lt;p&gt;* How do we maintain synchronization between DB,WS, and UI projects?&lt;/p&gt;" style="text;html=1;strokeColor=none;fillColor=none;spacing=5;spacingTop=-20;whiteSpace=wrap;overflow=hidden;rounded=0;" vertex="1" parent="1">
          <mxGeometry x="590" y="790" width="370" height="170" as="geometry" />
        </mxCell>
      </root>
    </mxGraphModel>
  </diagram>
</mxfile>
